<svg xmlns="http://www.w3.org/2000/svg" width="170.307" height="56" viewBox="0 0 170.307 56"><defs><style>.cls-1{fill:#231f20;}.cls-2{fill:#ed1a3b;}</style></defs><title>MAU_SV_hori_CMYK</title><g id="Generell"><path class="cls-1" d="M292.982,92.027h3.372l2.674,7.042,2.831-7.042h3.408l1.992,13.176h-3.425l-.962-7.584h-.034l-3.163,7.584h-1.363l-3.023-7.584h-.036l-1.1,7.584h-3.407Z" transform="translate(-238.347 -79)"/><path class="cls-1" d="M313.289,102.914l-.909,2.289h-3.635l5.069-13.176h3.739l4.962,13.176h-3.651l-.857-2.289Zm2.394-6.815h-.035l-1.416,4.193h2.849Z" transform="translate(-238.347 -79)"/><path class="cls-1" d="M327.532,102.3h4.106v2.9h-7.532V92.027h3.426Z" transform="translate(-238.347 -79)"/><path class="cls-1" d="M336.13,92.027H339.5l2.674,7.042,2.83-7.042h3.408l1.993,13.176h-3.426l-.961-7.584h-.035l-3.163,7.584H341.46l-3.023-7.584H338.4l-1.1,7.584h-3.407Z" transform="translate(-238.347 -79)"/><path class="cls-1" d="M365.943,98.37a7.287,7.287,0,0,1-14.574,0c0-3.984,3.495-6.78,7.287-6.78S365.943,94.386,365.943,98.37Zm-7.793-9.122a1.722,1.722,0,1,1-1.713-1.712A1.7,1.7,0,0,1,358.15,89.248Zm-3.216,9.14a3.728,3.728,0,1,0,7.445,0,3.731,3.731,0,0,0-7.445,0Zm7.689-9.14a1.721,1.721,0,1,1-1.713-1.712A1.7,1.7,0,0,1,362.623,89.248Z" transform="translate(-238.347 -79)"/></g><g id="SV"><path class="cls-1" d="M302.244,110.27v7.409c0,1.7-.07,3.373-1.381,4.648a7.234,7.234,0,0,1-8.737,0c-1.311-1.275-1.381-2.952-1.381-4.648V110.27h3.425v6.937c0,1.713.123,3.582,2.325,3.582s2.324-1.869,2.324-3.582V110.27Z" transform="translate(-238.347 -79)"/><path class="cls-1" d="M304.586,110.27h3.426l6.273,8.055h.035V110.27h3.425v13.176H314.32l-6.274-8.073h-.034v8.073h-3.426Z" transform="translate(-238.347 -79)"/><path class="cls-1" d="M323.513,123.446h-3.425V110.27h3.425Z" transform="translate(-238.347 -79)"/><path class="cls-1" d="M331.8,118.273l3.2-8h3.722l-5.627,13.176h-2.656l-5.54-13.176h3.722Z" transform="translate(-238.347 -79)"/><path class="cls-1" d="M343.523,113.17v2.2h3.862v2.9h-3.862v2.272h4.071v2.9h-7.5V110.27h7.5v2.9Z" transform="translate(-238.347 -79)"/><path class="cls-1" d="M361.19,123.446h-4.264l-3.232-5.068h-.035v5.068h-3.426V110.27h5.121c2.6,0,4.578,1.24,4.578,4.054a3.541,3.541,0,0,1-2.883,3.722Zm-7.531-7.27h.332c1.118,0,2.376-.21,2.376-1.643s-1.258-1.642-2.376-1.642h-.332Z" transform="translate(-238.347 -79)"/><path class="cls-1" d="M369.876,113.659a3.615,3.615,0,0,0-2.273-.873c-.628,0-1.468.367-1.468,1.1,0,.769.927,1.066,1.521,1.258l.874.262c1.835.542,3.25,1.468,3.25,3.6a4.475,4.475,0,0,1-1.363,3.548,5.783,5.783,0,0,1-3.74,1.24,8.13,8.13,0,0,1-4.63-1.5l1.468-2.762a4.692,4.692,0,0,0,3.04,1.363c.8,0,1.66-.4,1.66-1.328,0-.96-1.345-1.293-2.08-1.5-2.149-.612-3.565-1.172-3.565-3.722a4.271,4.271,0,0,1,4.544-4.422A9.013,9.013,0,0,1,371.238,111Z" transform="translate(-238.347 -79)"/><path class="cls-1" d="M377.356,123.446H373.93V110.27h3.426Z" transform="translate(-238.347 -79)"/><path class="cls-1" d="M385.488,123.446h-3.426V113.17h-2.83v-2.9h9.086v2.9h-2.83Z" transform="translate(-238.347 -79)"/><path class="cls-1" d="M393.62,113.17v2.2h3.861v2.9H393.62v2.272h4.071v2.9h-7.5V110.27h7.5v2.9Z" transform="translate(-238.347 -79)"/><path class="cls-1" d="M405.823,123.446H402.4V113.17h-2.83v-2.9h9.086v2.9h-2.83Z" transform="translate(-238.347 -79)"/></g><g id="Layer_1" data-name="Layer 1"><polygon class="cls-2" points="0 50.166 0 12.13 37.333 0 44.8 5.834 7.467 17.964 7.467 56 0 50.166"/><polygon class="cls-2" points="22.4 21.371 22.4 51.148 14.933 45.314 14.933 23.798 22.4 21.371"/><polygon class="cls-2" points="29.867 18.945 37.333 16.519 37.333 46.296 29.867 40.462 29.867 18.945"/></g></svg>