<svg width="100" height="100" viewBox="0 0 100 100" fill="none" xmlns="http://www.w3.org/2000/svg">
<path d="M40.0635 39.9993C40.0635 39.9993 40.6908 49.5747 50.1953 49.5747C59.6998 49.5747 59.9365 39.9993 59.9365 39.9993M36.7515 16.3683L15.7268 75.8382C12.8451 83.9893 18.8914 92.5401 27.537 92.5401C34.4552 92.5401 40.0635 86.9318 40.0635 80.0135V69.643C40.0635 64.1552 44.5122 59.7065 50 59.7065C55.4878 59.7065 59.9365 64.1552 59.9365 69.643V80.0135C59.9365 86.9318 65.5448 92.5401 72.463 92.5401C81.1085 92.5401 87.1549 83.9893 84.2732 75.8382L63.2485 16.3683C61.2635 10.7537 55.9551 7 50 7C44.0449 7 38.7365 10.7537 36.7515 16.3683Z" stroke="currentColor" stroke-width="3.45644" stroke-linecap="round"/>
</svg>
